<svg width="437" height="233" viewBox="0 0 437 233" fill="none" xmlns="http://www.w3.org/2000/svg">
<path d="M381.899 164.649C381.899 164.929 381.879 165.199 381.879 165.479V232.819H436.439V96.4492H381.879V163.829C381.879 164.109 381.899 164.379 381.899 164.659V164.649Z" fill="#010101"/>
<path d="M381.881 163.821C381.431 126.551 351.091 96.4614 313.721 96.4614L313.701 96.4414C276.031 96.4414 245.511 126.981 245.511 164.631C245.511 191.631 261.201 214.951 283.951 226.011H245.511V96.4514H190.961V232.841H313.711C351.101 232.841 381.431 202.751 381.871 165.481V163.821H381.881ZM313.691 174.861C308.041 174.861 303.471 170.291 303.471 164.631C303.471 158.971 308.041 154.401 313.691 154.401C319.341 154.401 323.921 158.971 323.921 164.631C323.921 170.291 319.351 174.861 313.691 174.861Z" fill="#010101"/>
<path d="M381.879 163.82V165.48C381.879 165.2 381.899 164.93 381.899 164.65C381.899 164.37 381.879 164.1 381.879 163.82Z" fill="#010101"/>
<path d="M190.94 164.651C190.94 127.001 160.4 96.4614 122.75 96.4614V96.4414C85.1 96.4414 54.56 126.981 54.56 164.631C54.56 191.631 70.25 214.951 93 226.011H54.56V96.4514H0V232.841H122.75C160.4 232.841 190.94 202.301 190.94 164.651ZM112.53 164.631C112.53 158.981 117.1 154.401 122.76 154.401C128.42 154.401 132.99 158.971 132.99 164.631C132.99 170.291 128.42 174.861 122.76 174.861C117.1 174.861 112.53 170.291 112.53 164.631Z" fill="#010101"/>
<path d="M266.219 48.47L314.169 96.43L362.389 48.22L314.169 0L266.219 47.96L266.469 48.22L266.219 48.47Z" fill="#010101"/>
<path d="M170.08 48.25L170.04 48.21L170.08 48.18L121.9 0L73.6797 48.21L121.9 96.43L170.08 48.25Z" fill="#010101"/>
<path d="M170.078 48.25L218.258 96.43L266.218 48.47L265.958 48.21L266.218 47.96L218.258 0L170.078 48.18L170.108 48.22L170.078 48.25Z" fill="#010101"/>
<path d="M266.223 47.9759L265.969 48.2305L266.223 48.485L266.478 48.2304L266.223 47.9759Z" fill="#010101"/>
<path d="M170.079 48.2497L170.109 48.2197L170.079 48.1797L170.039 48.2097L170.079 48.2497Z" fill="#010101"/>
</svg>
